<svg width="1320" height="1356" viewBox="0 0 1320 1356" class="keymap" xmlns="http://www.w3.org/2000/svg" xmlns:xlink="http://www.w3.org/1999/xlink">
<style>/* inherit to force styles through use tags */
svg path {
    fill: inherit;
}

/* font and background color specifications */
svg.keymap {
    /*
     * ====================
     * Theme Variables
     * ====================
     */

    --logo-path: none;
    --logo-size: 12%;
    --logo-position: 49.5% 5%;

    /* Horizontal center of the rendered keyboard inside each layer group.
     * Equal to the SVG viewBox width / 2 (lily58 = 1320 / 2 = 660).
     * Update this if key_h, padding, or the board layout changes.
     */
    --board-half-width: 660px;

    /* Vertical position of the layer label inside each layer group,
     * measured from the top of the layer's group element. Tuned to sit
     * in the empty space between the two halves of the split, roughly
     * between row 1 and row 2 of keys (key_h = 80 -> ~1.825 * key_h = 146).
     * Update this if key_h, inner_pad_h, or the board layout changes.
     */
    --layer-label-y: 146px;

    /* === Colors === */

    --color--material--blue--50: rgb(227, 242, 253);
    --color--material--blue--100: rgb(187, 222, 251);
    --color--material--blue--200: rgb(144, 202, 249);
    --color--material--blue--300: rgb(100, 181, 246);
    --color--material--blue--400: rgb(66, 165, 245);
    --color--material--blue--500: rgb(33, 150, 243);
    --color--material--blue--600: rgb(30, 136, 229);
    --color--material--blue--700: rgb(25, 118, 210);
    --color--material--blue--800: rgb(21, 101, 192);
    --color--material--blue--900: rgb(13, 71, 161);
    --color--material--blue--a100: rgb(130, 177, 255);
    --color--material--blue--a200: rgb(68, 138, 255);
    --color--material--blue--a400: rgb(41, 121, 255);
    --color--material--blue--a700: rgb(41, 98, 255);

    --color--material--blue-gray--50: rgb(236, 239, 241);
    --color--material--blue-gray--100: rgb(207, 216, 220);
    --color--material--blue-gray--200: rgb(176, 190, 197);
    --color--material--blue-gray--300: rgb(144, 164, 174);
    --color--material--blue-gray--400: rgb(120, 144, 156);
    --color--material--blue-gray--500: rgb(96, 125, 139);
    --color--material--blue-gray--600: rgb(84, 110, 122);
    --color--material--blue-gray--700: rgb(69, 90, 100);
    --color--material--blue-gray--800: rgb(55, 71, 79);
    --color--material--blue-gray--900: rgb(38, 50, 56);

    --color--material--blue-light--50: rgb(225, 245, 254);
    --color--material--blue-light--100: rgb(179, 229, 252);
    --color--material--blue-light--200: rgb(129, 212, 250);
    --color--material--blue-light--300: rgb(79, 195, 247);
    --color--material--blue-light--400: rgb(41, 182, 246);
    --color--material--blue-light--500: rgb(3, 169, 244);
    --color--material--blue-light--600: rgb(3, 155, 229);
    --color--material--blue-light--700: rgb(2, 136, 209);
    --color--material--blue-light--800: rgb(2, 119, 189);
    --color--material--blue-light--900: rgb(1, 87, 155);
    --color--material--blue-light--a100: rgb(128, 216, 255);
    --color--material--blue-light--a200: rgb(64, 196, 255);
    --color--material--blue-light--a400: rgb(0, 176, 255);
    --color--material--blue-light--a700: rgb(0, 145, 234);

    --color--material--purple--50: rgb(243, 229, 245);
    --color--material--purple--100: rgb(225, 190, 231);
    --color--material--purple--200: rgb(206, 147, 216);
    --color--material--purple--300: rgb(186, 104, 200);
    --color--material--purple--400: rgb(171, 71, 188);
    --color--material--purple--500: rgb(156, 39, 176);
    --color--material--purple--600: rgb(142, 36, 170);
    --color--material--purple--700: rgb(123, 31, 162);
    --color--material--purple--800: rgb(106, 27, 154);
    --color--material--purple--900: rgb(74, 20, 140);
    --color--material--purple--a100: rgb(234, 128, 252);
    --color--material--purple--a200: rgb(224, 64, 251);
    --color--material--purple--a400: rgb(213, 0, 249);
    --color--material--purple--a700: rgb(170, 0, 255);

    --color--material--red--50: rgb(255, 235, 238);
    --color--material--red--100: rgb(255, 205, 210);
    --color--material--red--200: rgb(239, 154, 154);
    --color--material--red--300: rgb(229, 115, 115);
    --color--material--red--400: rgb(239, 83, 80);
    --color--material--red--500: rgb(244, 67, 54);
    --color--material--red--600: rgb(229, 57, 53);
    --color--material--red--700: rgb(211, 47, 47);
    --color--material--red--800: rgb(198, 40, 40);
    --color--material--red--900: rgb(183, 28, 28);
    --color--material--red--a100: rgb(255, 138, 128);
    --color--material--red--a200: rgb(255, 82, 82);
    --color--material--red--a400: rgb(255, 23, 68);
    --color--material--red--a700: rgb(213, 0, 0);

    --color--material--teal--50: rgb(224, 242, 241);
    --color--material--teal--100: rgb(178, 223, 219);
    --color--material--teal--200: rgb(128, 203, 196);
    --color--material--teal--300: rgb(77, 182, 172);
    --color--material--teal--400: rgb(38, 166, 154);
    --color--material--teal--500: rgb(0, 150, 136);
    --color--material--teal--600: rgb(0, 137, 123);
    --color--material--teal--700: rgb(0, 121, 107);
    --color--material--teal--800: rgb(0, 105, 92);
    --color--material--teal--900: rgb(0, 77, 64);
    --color--material--teal--a100: rgb(167, 255, 235);
    --color--material--teal--a200: rgb(100, 255, 218);
    --color--material--teal--a400: rgb(29, 233, 182);
    --color--material--teal--a700: rgb(0, 191, 165);

    --color--material--yellow--50: rgb(255, 253, 231);
    --color--material--yellow--100: rgb(255, 249, 196);
    --color--material--yellow--200: rgb(255, 245, 157);
    --color--material--yellow--300: rgb(255, 241, 118);
    --color--material--yellow--400: rgb(255, 238, 88);
    --color--material--yellow--500: rgb(255, 235, 59);
    --color--material--yellow--600: rgb(253, 216, 53);
    --color--material--yellow--700: rgb(251, 192, 45);
    --color--material--yellow--800: rgb(249, 168, 37);
    --color--material--yellow--900: rgb(245, 127, 23);
    --color--material--yellow--a100: rgb(255, 255, 141);
    --color--material--yellow--a200: rgb(255, 255, 0);
    --color--material--yellow--a400: rgb(255, 234, 0);
    --color--material--yellow--a700: rgb(255, 214, 0);

    --color--turquoise--500: rgb(51, 204, 204);

    --color--bg: transparent;
    --color--text: var(--color--material--blue-gray--900);

    --color--layer--text: var(--color--material--blue-gray--400);

    --color--key--bg: var(--color--material--blue-gray--50);
    --color--key--border: white;
    --color--key--text--tap: var(--color--text);
    --color--key--text--shifted: var(--color--material--blue-gray--400);
    --color--key--text--hold: var(--color--material--blue-gray--400);

    --color--combo--bg: var(--color--material--blue-gray--100);
    --color--combo--border: var(--color--combo--bg);
    --color--combo--dendron: var(--color--combo--border);
    --color--combo--text--tap: var(--color--material--blue-gray--800);
    --color--combo--text--shifted: var(--color--material--blue-gray--400);
    --color--combo--text--hold: var(--color--combo--text--tap);

    /*
     * ====================
     * /End Theme Variables
     * ====================
     */

    font-family: system-ui, sans-serif;
    font-size: 20px;
    font-weight: 600;
    font-kerning: normal;
    text-rendering: optimizeLegibility;
    fill: var(--color--text);
    background-color: var(--color--bg);
    background-image: var(--logo-path);
    background-repeat: no-repeat;
    background-position: var(--logo-position);
    background-size: var(--logo-size) auto;
}

rect,
path {
  shape-rendering: geometricPrecision;
}

text {
    text-anchor: middle;
    dominant-baseline: middle;
    line-height: 1;
}

/* Layer labels */
text.label {
    font-size: 36px;
    text-anchor: middle;
    paint-order: stroke;
    fill: var(--color--layer--text);
    translate: var(--board-half-width) var(--layer-label-y);
}


/* Keys */
rect.key,
rect.combo {
    fill: var(--color--key--bg);
    stroke: var(--color--key--border);
}
.tap {
  fill: var(--color--key--text--tap);
}
.shifted,
.hold {
    font-size: 16px;
    text-anchor: middle;
}

.shifted {
    dominant-baseline: hanging;
    fill: var(--color--key--text--shifted);
    translate: 26px 2px;
}
.shifted.glyph {
    translate: 26px 0px;
}

.hold {
    dominant-baseline: ideographic;
    fill: var(--color--key--text--hold);
    translate: 26px 4px;
}
.hold.glyph {
    translate: 26px 2px;
}

/* Layer-activator hold legends (e.g. "raise" on a layer-tap binding):
 * keep horizontally centered within the key and nudge up slightly
 * so the legend doesn't sit flush against the bottom rect edge.
 */
.hold.layer-activator {
    translate: 0 -2px;
}


/*
 * Combos
 */
.combo {
  --color--key--bg: var(--color--combo--bg);
  --color--key--border: var(--color--combo--border);
  --color--key--text--tap: var(--color--combo--text--tap);
  --color--key--text--shifted: var(--color--combo--text--shifted);
  --color--key--text--hold: var(--color--combo--text--hold);
}
rect.combo {
  opacity: 0.8;
  stroke-width: 0;
}
path.combo {
  stroke-width: 1;
  stroke: var(--color--combo--dendron);
  fill: none;
}
.combo.tap {
  font-size: 16px;
}
.combo.shifted {
  font-size: 13px;
  translate: -9px -2px;
}
.combo.shifted.glyph {
  translate: -9px -3px;
}
.combo.hold {
  font-size: 16px;
  translate: 0 0;
}

/*
 * Transparent, None, and Ghost Keys
 */
.trans,
.none,
.ghost {
  opacity: 0.4;
}

/*
 * Overrides
 */
/* Outer column + thumb keys */
 .keypos-0 .key,
 .keypos-12 .key,
 .keypos-24 .key,
 .keypos-36 .key,
 .keypos-50 .key,
 .keypos-51 .key,
 .keypos-52 .key,
 .keypos-53 .key,
 .keypos-54 .key,
 .keypos-55 .key,
 .keypos-56 .key,
 .keypos-57 .key {
    --color--key--bg: var(--color--material--blue-gray--100);
    --color--key--border: var(--color--material--blue-gray--50);
}

/* Grave key on the lower layer: reset to the default key colors */
.layer-lower .keypos-24 .key {
    --color--key--bg: var(--color--material--blue-gray--50);
    --color--key--border: white;
}

/* Held keys: the layer-activator keys shown on the layer they activate
 * (e.g. the "lower" thumb key on the lower layer, the "raise" thumb key
 * on the raise layer).
 */
rect.key.held {
    --color--key--bg: var(--color--material--red--200);
    --color--key--border: var(--color--material--red--100);
}

.keypos-0 .shifted,
.keypos-1 .shifted,
.keypos-2 .shifted,
.keypos-3 .shifted,
.keypos-4 .shifted,
.keypos-5 .shifted,
.keypos-12 .shifted,
.keypos-13 .shifted,
.keypos-14 .shifted,
.keypos-15 .shifted,
.keypos-16 .shifted,
.keypos-17 .shifted,
.keypos-24 .shifted,
.keypos-25 .shifted,
.keypos-26 .shifted,
.keypos-27 .shifted,
.keypos-28 .shifted,
.keypos-29 .shifted,
.keypos-36 .shifted,
.keypos-37 .shifted,
.keypos-38 .shifted {
  translate: -26px 2px;
}

.keypos-0 .hold,
.keypos-1 .hold,
.keypos-2 .hold,
.keypos-3 .hold,
.keypos-4 .hold,
.keypos-5 .hold,
.keypos-12 .hold,
.keypos-13 .hold,
.keypos-14 .hold,
.keypos-15 .hold,
.keypos-16 .hold,
.keypos-17 .hold,
.keypos-24 .hold,
.keypos-25 .hold,
.keypos-26 .hold,
.keypos-27 .hold,
.keypos-28 .hold,
.keypos-29 .hold,
.keypos-36 .hold,
.keypos-37 .hold,
.keypos-38 .hold {
  translate: -26px 4px;
}

.keypos-0 .hold.glyph,
.keypos-1 .hold.glyph,
.keypos-2 .hold.glyph,
.keypos-3 .hold.glyph,
.keypos-4 .hold.glyph,
.keypos-5 .hold.glyph,
.keypos-12 .hold.glyph,
.keypos-13 .hold.glyph,
.keypos-14 .hold.glyph,
.keypos-15 .hold.glyph,
.keypos-16 .hold.glyph,
.keypos-17 .hold.glyph,
.keypos-24 .hold.glyph,
.keypos-25 .hold.glyph,
.keypos-26 .hold.glyph,
.keypos-27 .hold.glyph,
.keypos-28 .hold.glyph,
.keypos-29 .hold.glyph,
.keypos-36 .hold.glyph,
.keypos-37 .hold.glyph,
.keypos-38 .hold.glyph {
  translate: -26px 2px;
}

.shifted.mdi\:alpha-w-box {
  translate: 0px 8px;
}
.keypos-38 .shifted.mdi\:alpha-w-box,
.keypos-39 .shifted.mdi\:alpha-w-box {
  translate: 0px 20px;
}

.hold.mdi\:gesture-tap-hold {
  translate: 0px -8px;
}
.keypos-38 .hold.mdi\:gesture-tap-hold,
.keypos-39 .hold.mdi\:gesture-tap-hold {
  translate: 0px -20px;
}

.key .mdi\:toggle-switch ~ .mdi\:usb {
  translate: -22px 26px;
}
.key .mdi\:toggle-switch ~ .mdi\:bluetooth {
  translate: 22px -26px;
}
</style>
<g transform="translate(0, 0)" class="layer-default">
<text x="0" y="0" class="label" id="default">default</text>
<g transform="translate(0, 0)">
<g transform="translate(40, 80)" class="key keypos-0">
<rect rx="4" ry="4" x="-38" y="-38" width="77" height="77" class="key"/>
<text x="0" y="0" class="key tap"><tspan style="font-size: 83%">ESCAPE</tspan></text>
</g>
<g transform="translate(120, 70)" class="key keypos-1">
<rect rx="4" ry="4" x="-38" y="-38" width="77" height="77" class="key"/>
<text x="0" y="0" class="key tap">1</text>
</g>
<g transform="translate(200, 50)" class="key keypos-2">
<rect rx="4" ry="4" x="-38" y="-38" width="77" height="77" class="key"/>
<text x="0" y="0" class="key tap">2</text>
</g>
<g transform="translate(280, 40)" class="key keypos-3">
<rect rx="4" ry="4" x="-38" y="-38" width="77" height="77" class="key"/>
<text x="0" y="0" class="key tap">3</text>
</g>
<g transform="translate(360, 50)" class="key keypos-4">
<rect rx="4" ry="4" x="-38" y="-38" width="77" height="77" class="key"/>
<text x="0" y="0" class="key tap">4</text>
</g>
<g transform="translate(440, 60)" class="key keypos-5">
<rect rx="4" ry="4" x="-38" y="-38" width="77" height="77" class="key"/>
<text x="0" y="0" class="key tap">5</text>
</g>
<g transform="translate(880, 60)" class="key keypos-6">
<rect rx="4" ry="4" x="-38" y="-38" width="77" height="77" class="key"/>
<text x="0" y="0" class="key tap">6</text>
</g>
<g transform="translate(960, 50)" class="key keypos-7">
<rect rx="4" ry="4" x="-38" y="-38" width="77" height="77" class="key"/>
<text x="0" y="0" class="key tap">7</text>
</g>
<g transform="translate(1040, 40)" class="key keypos-8">
<rect rx="4" ry="4" x="-38" y="-38" width="77" height="77" class="key"/>
<text x="0" y="0" class="key tap">8</text>
</g>
<g transform="translate(1120, 50)" class="key keypos-9">
<rect rx="4" ry="4" x="-38" y="-38" width="77" height="77" class="key"/>
<text x="0" y="0" class="key tap">9</text>
</g>
<g transform="translate(1200, 70)" class="key keypos-10">
<rect rx="4" ry="4" x="-38" y="-38" width="77" height="77" class="key"/>
<text x="0" y="0" class="key tap">0</text>
</g>
<g transform="translate(1280, 80)" class="key keypos-11">
<rect rx="4" ry="4" x="-38" y="-38" width="77" height="77" class="key"/>
<text x="0" y="0" class="key tap">`</text>
</g>
<g transform="translate(40, 160)" class="key keypos-12">
<rect rx="4" ry="4" x="-38" y="-38" width="77" height="77" class="key"/>
<text x="0" y="0" class="key tap">TAB</text>
</g>
<g transform="translate(120, 150)" class="key keypos-13">
<rect rx="4" ry="4" x="-38" y="-38" width="77" height="77" class="key"/>
<text x="0" y="0" class="key tap">Q</text>
</g>
<g transform="translate(200, 130)" class="key keypos-14">
<rect rx="4" ry="4" x="-38" y="-38" width="77" height="77" class="key"/>
<text x="0" y="0" class="key tap">W</text>
</g>
<g transform="translate(280, 120)" class="key keypos-15">
<rect rx="4" ry="4" x="-38" y="-38" width="77" height="77" class="key"/>
<text x="0" y="0" class="key tap">E</text>
</g>
<g transform="translate(360, 130)" class="key keypos-16">
<rect rx="4" ry="4" x="-38" y="-38" width="77" height="77" class="key"/>
<text x="0" y="0" class="key tap">R</text>
</g>
<g transform="translate(440, 140)" class="key keypos-17">
<rect rx="4" ry="4" x="-38" y="-38" width="77" height="77" class="key"/>
<text x="0" y="0" class="key tap">T</text>
</g>
<g transform="translate(880, 140)" class="key keypos-18">
<rect rx="4" ry="4" x="-38" y="-38" width="77" height="77" class="key"/>
<text x="0" y="0" class="key tap">Y</text>
</g>
<g transform="translate(960, 130)" class="key keypos-19">
<rect rx="4" ry="4" x="-38" y="-38" width="77" height="77" class="key"/>
<text x="0" y="0" class="key tap">U</text>
</g>
<g transform="translate(1040, 120)" class="key keypos-20">
<rect rx="4" ry="4" x="-38" y="-38" width="77" height="77" class="key"/>
<text x="0" y="0" class="key tap">I</text>
</g>
<g transform="translate(1120, 130)" class="key keypos-21">
<rect rx="4" ry="4" x="-38" y="-38" width="77" height="77" class="key"/>
<text x="0" y="0" class="key tap">O</text>
</g>
<g transform="translate(1200, 150)" class="key keypos-22">
<rect rx="4" ry="4" x="-38" y="-38" width="77" height="77" class="key"/>
<text x="0" y="0" class="key tap">P</text>
</g>
<g transform="translate(1280, 160)" class="key keypos-23">
<rect rx="4" ry="4" x="-38" y="-38" width="77" height="77" class="key"/>
<text x="0" y="0" class="key tap">\</text>
</g>
<g transform="translate(40, 240)" class="key keypos-24">
<rect rx="4" ry="4" x="-38" y="-38" width="77" height="77" class="key"/>
<text x="0" y="0" class="key tap">LCTRL</text>
</g>
<g transform="translate(120, 230)" class="key keypos-25">
<rect rx="4" ry="4" x="-38" y="-38" width="77" height="77" class="key"/>
<text x="0" y="0" class="key tap">A</text>
</g>
<g transform="translate(200, 210)" class="key keypos-26">
<rect rx="4" ry="4" x="-38" y="-38" width="77" height="77" class="key"/>
<text x="0" y="0" class="key tap">S</text>
</g>
<g transform="translate(280, 200)" class="key keypos-27">
<rect rx="4" ry="4" x="-38" y="-38" width="77" height="77" class="key"/>
<text x="0" y="0" class="key tap">D</text>
</g>
<g transform="translate(360, 210)" class="key keypos-28">
<rect rx="4" ry="4" x="-38" y="-38" width="77" height="77" class="key"/>
<text x="0" y="0" class="key tap">F</text>
</g>
<g transform="translate(440, 220)" class="key keypos-29">
<rect rx="4" ry="4" x="-38" y="-38" width="77" height="77" class="key"/>
<text x="0" y="0" class="key tap">G</text>
</g>
<g transform="translate(880, 220)" class="key keypos-30">
<rect rx="4" ry="4" x="-38" y="-38" width="77" height="77" class="key"/>
<text x="0" y="0" class="key tap">H</text>
</g>
<g transform="translate(960, 210)" class="key keypos-31">
<rect rx="4" ry="4" x="-38" y="-38" width="77" height="77" class="key"/>
<text x="0" y="0" class="key tap">J</text>
</g>
<g transform="translate(1040, 200)" class="key keypos-32">
<rect rx="4" ry="4" x="-38" y="-38" width="77" height="77" class="key"/>
<text x="0" y="0" class="key tap">K</text>
</g>
<g transform="translate(1120, 210)" class="key keypos-33">
<rect rx="4" ry="4" x="-38" y="-38" width="77" height="77" class="key"/>
<text x="0" y="0" class="key tap">L</text>
</g>
<g transform="translate(1200, 230)" class="key keypos-34">
<rect rx="4" ry="4" x="-38" y="-38" width="77" height="77" class="key"/>
<text x="0" y="0" class="key tap">;</text>
</g>
<g transform="translate(1280, 240)" class="key keypos-35">
<rect rx="4" ry="4" x="-38" y="-38" width="77" height="77" class="key"/>
<text x="0" y="0" class="key tap">&#x27;</text>
</g>
<g transform="translate(40, 320)" class="key keypos-36">
<rect rx="4" ry="4" x="-38" y="-38" width="77" height="77" class="key"/>
<text x="0" y="0" class="key tap">LSHFT</text>
</g>
<g transform="translate(120, 310)" class="key keypos-37">
<rect rx="4" ry="4" x="-38" y="-38" width="77" height="77" class="key"/>
<text x="0" y="0" class="key tap">Z</text>
</g>
<g transform="translate(200, 290)" class="key keypos-38">
<rect rx="4" ry="4" x="-38" y="-38" width="77" height="77" class="key"/>
<text x="0" y="0" class="key tap">X</text>
</g>
<g transform="translate(280, 280)" class="key keypos-39">
<rect rx="4" ry="4" x="-38" y="-38" width="77" height="77" class="key"/>
<text x="0" y="0" class="key tap">C</text>
</g>
<g transform="translate(360, 290)" class="key keypos-40">
<rect rx="4" ry="4" x="-38" y="-38" width="77" height="77" class="key"/>
<text x="0" y="0" class="key tap">V</text>
</g>
<g transform="translate(440, 300)" class="key keypos-41">
<rect rx="4" ry="4" x="-38" y="-38" width="77" height="77" class="key"/>
<text x="0" y="0" class="key tap">B</text>
</g>
<g transform="translate(520, 260)" class="key keypos-42">
<rect rx="4" ry="4" x="-38" y="-38" width="77" height="77" class="key"/>
<text x="0" y="0" class="key tap">-</text>
</g>
<g transform="translate(800, 260)" class="key keypos-43">
<rect rx="4" ry="4" x="-38" y="-38" width="77" height="77" class="key"/>
<text x="0" y="0" class="key tap">=</text>
</g>
<g transform="translate(880, 300)" class="key keypos-44">
<rect rx="4" ry="4" x="-38" y="-38" width="77" height="77" class="key"/>
<text x="0" y="0" class="key tap">N</text>
</g>
<g transform="translate(960, 290)" class="key keypos-45">
<rect rx="4" ry="4" x="-38" y="-38" width="77" height="77" class="key"/>
<text x="0" y="0" class="key tap">M</text>
</g>
<g transform="translate(1040, 280)" class="key keypos-46">
<rect rx="4" ry="4" x="-38" y="-38" width="77" height="77" class="key"/>
<text x="0" y="0" class="key tap">,</text>
</g>
<g transform="translate(1120, 290)" class="key keypos-47">
<rect rx="4" ry="4" x="-38" y="-38" width="77" height="77" class="key"/>
<text x="0" y="0" class="key tap">.</text>
</g>
<g transform="translate(1200, 310)" class="key keypos-48">
<rect rx="4" ry="4" x="-38" y="-38" width="77" height="77" class="key"/>
<text x="0" y="0" class="key tap">/</text>
</g>
<g transform="translate(1280, 320)" class="key trans keypos-49">
<rect rx="4" ry="4" x="-38" y="-38" width="77" height="77" class="key trans"/>
<text x="0" y="0" class="key trans tap">▽</text>
</g>
<g transform="translate(240, 370)" class="key keypos-50">
<rect rx="4" ry="4" x="-38" y="-38" width="77" height="77" class="key"/>
<text x="0" y="0" class="key tap">LALT</text>
</g>
<g transform="translate(320, 372)" class="key keypos-51">
<rect rx="4" ry="4" x="-38" y="-38" width="77" height="77" class="key"/>
<text x="0" y="0" class="key tap">LCMD</text>
</g>
<g transform="translate(400, 380)" class="key keypos-52">
<rect rx="4" ry="4" x="-38" y="-38" width="77" height="77" class="key"/>
<text x="0" y="0" class="key tap"><tspan style="font-size: 62%">BACKSPA…</tspan></text>
</g>
<g transform="translate(500, 380) rotate(30.0)" class="key keypos-53">
<rect rx="4" ry="4" x="-38" y="-58" width="77" height="117" class="key"/>
<a href="#lower">
<text x="0" y="0" class="key tap layer-activator">lower</text>
</a></g>
<g transform="translate(820, 380) rotate(-30.0)" class="key keypos-54">
<rect rx="4" ry="4" x="-38" y="-58" width="77" height="117" class="key"/>
<text x="0" y="0" class="key tap">ENTER</text>
<a href="#raise">
<text x="0" y="54" class="key hold layer-activator">raise</text>
</a></g>
<g transform="translate(920, 380)" class="key keypos-55">
<rect rx="4" ry="4" x="-38" y="-38" width="77" height="77" class="key"/>
<text x="0" y="0" class="key tap">SPACE</text>
</g>
<g transform="translate(1000, 372)" class="key keypos-56">
<rect rx="4" ry="4" x="-38" y="-38" width="77" height="77" class="key"/>
<text x="0" y="0" class="key tap"><tspan style="font-size: 83%">RSHIFT</tspan></text>
</g>
<g transform="translate(1080, 372)" class="key keypos-57">
<rect rx="4" ry="4" x="-38" y="-38" width="77" height="77" class="key"/>
<text x="0" y="0" class="key tap">DEL</text>
</g>
</g>
</g>
<g transform="translate(0, 452)" class="layer-lower">
<text x="0" y="0" class="label" id="lower">lower</text>
<g transform="translate(0, 0)">
<g transform="translate(40, 80)" class="key keypos-0">
<rect rx="4" ry="4" x="-38" y="-38" width="77" height="77" class="key"/>
<text x="0" y="0" class="key tap">
<tspan x="0" dy="-0.5em">BT</tspan><tspan x="0" dy="1.0em">CLR</tspan>
</text>
</g>
<g transform="translate(120, 70)" class="key keypos-1">
<rect rx="4" ry="4" x="-38" y="-38" width="77" height="77" class="key"/>
<text x="0" y="0" class="key tap">BT</text>
<text x="0" y="34" class="key hold">0</text>
</g>
<g transform="translate(200, 50)" class="key keypos-2">
<rect rx="4" ry="4" x="-38" y="-38" width="77" height="77" class="key"/>
<text x="0" y="0" class="key tap">BT</text>
<text x="0" y="34" class="key hold">1</text>
</g>
<g transform="translate(280, 40)" class="key keypos-3">
<rect rx="4" ry="4" x="-38" y="-38" width="77" height="77" class="key"/>
<text x="0" y="0" class="key tap">BT</text>
<text x="0" y="34" class="key hold">2</text>
</g>
<g transform="translate(360, 50)" class="key keypos-4">
<rect rx="4" ry="4" x="-38" y="-38" width="77" height="77" class="key"/>
<text x="0" y="0" class="key tap">BT</text>
<text x="0" y="34" class="key hold">3</text>
</g>
<g transform="translate(440, 60)" class="key keypos-5">
<rect rx="4" ry="4" x="-38" y="-38" width="77" height="77" class="key"/>
<text x="0" y="0" class="key tap">BT</text>
<text x="0" y="34" class="key hold">4</text>
</g>
<g transform="translate(880, 60)" class="key trans keypos-6">
<rect rx="4" ry="4" x="-38" y="-38" width="77" height="77" class="key trans"/>
<text x="0" y="0" class="key trans tap">▽</text>
</g>
<g transform="translate(960, 50)" class="key trans keypos-7">
<rect rx="4" ry="4" x="-38" y="-38" width="77" height="77" class="key trans"/>
<text x="0" y="0" class="key trans tap">▽</text>
</g>
<g transform="translate(1040, 40)" class="key trans keypos-8">
<rect rx="4" ry="4" x="-38" y="-38" width="77" height="77" class="key trans"/>
<text x="0" y="0" class="key trans tap">▽</text>
</g>
<g transform="translate(1120, 50)" class="key trans keypos-9">
<rect rx="4" ry="4" x="-38" y="-38" width="77" height="77" class="key trans"/>
<text x="0" y="0" class="key trans tap">▽</text>
</g>
<g transform="translate(1200, 70)" class="key trans keypos-10">
<rect rx="4" ry="4" x="-38" y="-38" width="77" height="77" class="key trans"/>
<text x="0" y="0" class="key trans tap">▽</text>
</g>
<g transform="translate(1280, 80)" class="key trans keypos-11">
<rect rx="4" ry="4" x="-38" y="-38" width="77" height="77" class="key trans"/>
<text x="0" y="0" class="key trans tap">▽</text>
</g>
<g transform="translate(40, 160)" class="key trans keypos-12">
<rect rx="4" ry="4" x="-38" y="-38" width="77" height="77" class="key trans"/>
<text x="0" y="0" class="key trans tap">▽</text>
</g>
<g transform="translate(120, 150)" class="key keypos-13">
<rect rx="4" ry="4" x="-38" y="-38" width="77" height="77" class="key"/>
<text x="0" y="0" class="key tap">1</text>
</g>
<g transform="translate(200, 130)" class="key keypos-14">
<rect rx="4" ry="4" x="-38" y="-38" width="77" height="77" class="key"/>
<text x="0" y="0" class="key tap">2</text>
</g>
<g transform="translate(280, 120)" class="key keypos-15">
<rect rx="4" ry="4" x="-38" y="-38" width="77" height="77" class="key"/>
<text x="0" y="0" class="key tap">3</text>
</g>
<g transform="translate(360, 130)" class="key keypos-16">
<rect rx="4" ry="4" x="-38" y="-38" width="77" height="77" class="key"/>
<text x="0" y="0" class="key tap">4</text>
</g>
<g transform="translate(440, 140)" class="key keypos-17">
<rect rx="4" ry="4" x="-38" y="-38" width="77" height="77" class="key"/>
<text x="0" y="0" class="key tap">5</text>
</g>
<g transform="translate(880, 140)" class="key keypos-18">
<rect rx="4" ry="4" x="-38" y="-38" width="77" height="77" class="key"/>
<text x="0" y="0" class="key tap">6</text>
</g>
<g transform="translate(960, 130)" class="key keypos-19">
<rect rx="4" ry="4" x="-38" y="-38" width="77" height="77" class="key"/>
<text x="0" y="0" class="key tap">7</text>
</g>
<g transform="translate(1040, 120)" class="key keypos-20">
<rect rx="4" ry="4" x="-38" y="-38" width="77" height="77" class="key"/>
<text x="0" y="0" class="key tap">8</text>
</g>
<g transform="translate(1120, 130)" class="key keypos-21">
<rect rx="4" ry="4" x="-38" y="-38" width="77" height="77" class="key"/>
<text x="0" y="0" class="key tap">9</text>
</g>
<g transform="translate(1200, 150)" class="key keypos-22">
<rect rx="4" ry="4" x="-38" y="-38" width="77" height="77" class="key"/>
<text x="0" y="0" class="key tap">0</text>
</g>
<g transform="translate(1280, 160)" class="key trans keypos-23">
<rect rx="4" ry="4" x="-38" y="-38" width="77" height="77" class="key trans"/>
<text x="0" y="0" class="key trans tap">▽</text>
</g>
<g transform="translate(40, 240)" class="key keypos-24">
<rect rx="4" ry="4" x="-38" y="-38" width="77" height="77" class="key"/>
<text x="0" y="0" class="key tap">`</text>
</g>
<g transform="translate(120, 230)" class="key keypos-25">
<rect rx="4" ry="4" x="-38" y="-38" width="77" height="77" class="key"/>
<text x="0" y="0" class="key tap">!</text>
</g>
<g transform="translate(200, 210)" class="key keypos-26">
<rect rx="4" ry="4" x="-38" y="-38" width="77" height="77" class="key"/>
<text x="0" y="0" class="key tap">@</text>
</g>
<g transform="translate(280, 200)" class="key keypos-27">
<rect rx="4" ry="4" x="-38" y="-38" width="77" height="77" class="key"/>
<text x="0" y="0" class="key tap">#</text>
</g>
<g transform="translate(360, 210)" class="key keypos-28">
<rect rx="4" ry="4" x="-38" y="-38" width="77" height="77" class="key"/>
<text x="0" y="0" class="key tap">$</text>
</g>
<g transform="translate(440, 220)" class="key keypos-29">
<rect rx="4" ry="4" x="-38" y="-38" width="77" height="77" class="key"/>
<text x="0" y="0" class="key tap">%</text>
</g>
<g transform="translate(880, 220)" class="key keypos-30">
<rect rx="4" ry="4" x="-38" y="-38" width="77" height="77" class="key"/>
<text x="0" y="0" class="key tap">^</text>
</g>
<g transform="translate(960, 210)" class="key keypos-31">
<rect rx="4" ry="4" x="-38" y="-38" width="77" height="77" class="key"/>
<text x="0" y="0" class="key tap">&amp;</text>
</g>
<g transform="translate(1040, 200)" class="key keypos-32">
<rect rx="4" ry="4" x="-38" y="-38" width="77" height="77" class="key"/>
<text x="0" y="0" class="key tap">*</text>
</g>
<g transform="translate(1120, 210)" class="key keypos-33">
<rect rx="4" ry="4" x="-38" y="-38" width="77" height="77" class="key"/>
<text x="0" y="0" class="key tap">(</text>
</g>
<g transform="translate(1200, 230)" class="key keypos-34">
<rect rx="4" ry="4" x="-38" y="-38" width="77" height="77" class="key"/>
<text x="0" y="0" class="key tap">)</text>
</g>
<g transform="translate(1280, 240)" class="key keypos-35">
<rect rx="4" ry="4" x="-38" y="-38" width="77" height="77" class="key"/>
<text x="0" y="0" class="key tap">~</text>
</g>
<g transform="translate(40, 320)" class="key trans keypos-36">
<rect rx="4" ry="4" x="-38" y="-38" width="77" height="77" class="key trans"/>
<text x="0" y="0" class="key trans tap">▽</text>
</g>
<g transform="translate(120, 310)" class="key keypos-37">
<rect rx="4" ry="4" x="-38" y="-38" width="77" height="77" class="key"/>
<text x="0" y="0" class="key tap">
<tspan x="0" dy="-0.5em">EP</tspan><tspan x="0" dy="1.0em">ON</tspan>
</text>
</g>
<g transform="translate(200, 290)" class="key keypos-38">
<rect rx="4" ry="4" x="-38" y="-38" width="77" height="77" class="key"/>
<text x="0" y="0" class="key tap">
<tspan x="0" dy="-0.5em">EP</tspan><tspan x="0" dy="1.0em">OFF</tspan>
</text>
</g>
<g transform="translate(280, 280)" class="key keypos-39">
<rect rx="4" ry="4" x="-38" y="-38" width="77" height="77" class="key"/>
<text x="0" y="0" class="key tap">
<tspan x="0" dy="-0.5em">EP</tspan><tspan x="0" dy="1.0em">TOG</tspan>
</text>
</g>
<g transform="translate(360, 290)" class="key trans keypos-40">
<rect rx="4" ry="4" x="-38" y="-38" width="77" height="77" class="key trans"/>
<text x="0" y="0" class="key trans tap">▽</text>
</g>
<g transform="translate(440, 300)" class="key trans keypos-41">
<rect rx="4" ry="4" x="-38" y="-38" width="77" height="77" class="key trans"/>
<text x="0" y="0" class="key trans tap">▽</text>
</g>
<g transform="translate(520, 260)" class="key trans keypos-42">
<rect rx="4" ry="4" x="-38" y="-38" width="77" height="77" class="key trans"/>
<text x="0" y="0" class="key trans tap">▽</text>
</g>
<g transform="translate(800, 260)" class="key trans keypos-43">
<rect rx="4" ry="4" x="-38" y="-38" width="77" height="77" class="key trans"/>
<text x="0" y="0" class="key trans tap">▽</text>
</g>
<g transform="translate(880, 300)" class="key trans keypos-44">
<rect rx="4" ry="4" x="-38" y="-38" width="77" height="77" class="key trans"/>
<text x="0" y="0" class="key trans tap">▽</text>
</g>
<g transform="translate(960, 290)" class="key keypos-45">
<rect rx="4" ry="4" x="-38" y="-38" width="77" height="77" class="key"/>
<text x="0" y="0" class="key tap">-</text>
</g>
<g transform="translate(1040, 280)" class="key keypos-46">
<rect rx="4" ry="4" x="-38" y="-38" width="77" height="77" class="key"/>
<text x="0" y="0" class="key tap">+</text>
</g>
<g transform="translate(1120, 290)" class="key keypos-47">
<rect rx="4" ry="4" x="-38" y="-38" width="77" height="77" class="key"/>
<text x="0" y="0" class="key tap">{</text>
</g>
<g transform="translate(1200, 310)" class="key keypos-48">
<rect rx="4" ry="4" x="-38" y="-38" width="77" height="77" class="key"/>
<text x="0" y="0" class="key tap">}</text>
</g>
<g transform="translate(1280, 320)" class="key keypos-49">
<rect rx="4" ry="4" x="-38" y="-38" width="77" height="77" class="key"/>
<text x="0" y="0" class="key tap">|</text>
</g>
<g transform="translate(240, 370)" class="key trans keypos-50">
<rect rx="4" ry="4" x="-38" y="-38" width="77" height="77" class="key trans"/>
<text x="0" y="0" class="key trans tap">▽</text>
</g>
<g transform="translate(320, 372)" class="key trans keypos-51">
<rect rx="4" ry="4" x="-38" y="-38" width="77" height="77" class="key trans"/>
<text x="0" y="0" class="key trans tap">▽</text>
</g>
<g transform="translate(400, 380)" class="key trans keypos-52">
<rect rx="4" ry="4" x="-38" y="-38" width="77" height="77" class="key trans"/>
<text x="0" y="0" class="key trans tap">▽</text>
</g>
<g transform="translate(500, 380) rotate(30.0)" class="key held keypos-53">
<rect rx="4" ry="4" x="-38" y="-58" width="77" height="117" class="key held"/>
</g>
<g transform="translate(820, 380) rotate(-30.0)" class="key trans keypos-54">
<rect rx="4" ry="4" x="-38" y="-58" width="77" height="117" class="key trans"/>
<text x="0" y="0" class="key trans tap">▽</text>
</g>
<g transform="translate(920, 380)" class="key trans keypos-55">
<rect rx="4" ry="4" x="-38" y="-38" width="77" height="77" class="key trans"/>
<text x="0" y="0" class="key trans tap">▽</text>
</g>
<g transform="translate(1000, 372)" class="key trans keypos-56">
<rect rx="4" ry="4" x="-38" y="-38" width="77" height="77" class="key trans"/>
<text x="0" y="0" class="key trans tap">▽</text>
</g>
<g transform="translate(1080, 372)" class="key trans keypos-57">
<rect rx="4" ry="4" x="-38" y="-38" width="77" height="77" class="key trans"/>
<text x="0" y="0" class="key trans tap">▽</text>
</g>
</g>
</g>
<g transform="translate(0, 904)" class="layer-raise">
<text x="0" y="0" class="label" id="raise">raise</text>
<g transform="translate(0, 0)">
<g transform="translate(40, 80)" class="key trans keypos-0">
<rect rx="4" ry="4" x="-38" y="-38" width="77" height="77" class="key trans"/>
<text x="0" y="0" class="key trans tap">▽</text>
</g>
<g transform="translate(120, 70)" class="key trans keypos-1">
<rect rx="4" ry="4" x="-38" y="-38" width="77" height="77" class="key trans"/>
<text x="0" y="0" class="key trans tap">▽</text>
</g>
<g transform="translate(200, 50)" class="key trans keypos-2">
<rect rx="4" ry="4" x="-38" y="-38" width="77" height="77" class="key trans"/>
<text x="0" y="0" class="key trans tap">▽</text>
</g>
<g transform="translate(280, 40)" class="key trans keypos-3">
<rect rx="4" ry="4" x="-38" y="-38" width="77" height="77" class="key trans"/>
<text x="0" y="0" class="key trans tap">▽</text>
</g>
<g transform="translate(360, 50)" class="key trans keypos-4">
<rect rx="4" ry="4" x="-38" y="-38" width="77" height="77" class="key trans"/>
<text x="0" y="0" class="key trans tap">▽</text>
</g>
<g transform="translate(440, 60)" class="key trans keypos-5">
<rect rx="4" ry="4" x="-38" y="-38" width="77" height="77" class="key trans"/>
<text x="0" y="0" class="key trans tap">▽</text>
</g>
<g transform="translate(880, 60)" class="key trans keypos-6">
<rect rx="4" ry="4" x="-38" y="-38" width="77" height="77" class="key trans"/>
<text x="0" y="0" class="key trans tap">▽</text>
</g>
<g transform="translate(960, 50)" class="key keypos-7">
<rect rx="4" ry="4" x="-38" y="-38" width="77" height="77" class="key"/>
<text x="0" y="0" class="key tap">MUTE</text>
</g>
<g transform="translate(1040, 40)" class="key keypos-8">
<rect rx="4" ry="4" x="-38" y="-38" width="77" height="77" class="key"/>
<text x="0" y="0" class="key tap">
<tspan x="0" dy="-0.5em">VOL</tspan><tspan x="0" dy="1.0em">DN</tspan>
</text>
</g>
<g transform="translate(1120, 50)" class="key keypos-9">
<rect rx="4" ry="4" x="-38" y="-38" width="77" height="77" class="key"/>
<text x="0" y="0" class="key tap">
<tspan x="0" dy="-0.5em">VOL</tspan><tspan x="0" dy="1.0em">UP</tspan>
</text>
</g>
<g transform="translate(1200, 70)" class="key trans keypos-10">
<rect rx="4" ry="4" x="-38" y="-38" width="77" height="77" class="key trans"/>
<text x="0" y="0" class="key trans tap">▽</text>
</g>
<g transform="translate(1280, 80)" class="key trans keypos-11">
<rect rx="4" ry="4" x="-38" y="-38" width="77" height="77" class="key trans"/>
<text x="0" y="0" class="key trans tap">▽</text>
</g>
<g transform="translate(40, 160)" class="key trans keypos-12">
<rect rx="4" ry="4" x="-38" y="-38" width="77" height="77" class="key trans"/>
<text x="0" y="0" class="key trans tap">▽</text>
</g>
<g transform="translate(120, 150)" class="key trans keypos-13">
<rect rx="4" ry="4" x="-38" y="-38" width="77" height="77" class="key trans"/>
<text x="0" y="0" class="key trans tap">▽</text>
</g>
<g transform="translate(200, 130)" class="key trans keypos-14">
<rect rx="4" ry="4" x="-38" y="-38" width="77" height="77" class="key trans"/>
<text x="0" y="0" class="key trans tap">▽</text>
</g>
<g transform="translate(280, 120)" class="key trans keypos-15">
<rect rx="4" ry="4" x="-38" y="-38" width="77" height="77" class="key trans"/>
<text x="0" y="0" class="key trans tap">▽</text>
</g>
<g transform="translate(360, 130)" class="key trans keypos-16">
<rect rx="4" ry="4" x="-38" y="-38" width="77" height="77" class="key trans"/>
<text x="0" y="0" class="key trans tap">▽</text>
</g>
<g transform="translate(440, 140)" class="key trans keypos-17">
<rect rx="4" ry="4" x="-38" y="-38" width="77" height="77" class="key trans"/>
<text x="0" y="0" class="key trans tap">▽</text>
</g>
<g transform="translate(880, 140)" class="key trans keypos-18">
<rect rx="4" ry="4" x="-38" y="-38" width="77" height="77" class="key trans"/>
<text x="0" y="0" class="key trans tap">▽</text>
</g>
<g transform="translate(960, 130)" class="key keypos-19">
<rect rx="4" ry="4" x="-38" y="-38" width="77" height="77" class="key"/>
<text x="0" y="0" class="key tap">PREV</text>
</g>
<g transform="translate(1040, 120)" class="key keypos-20">
<rect rx="4" ry="4" x="-38" y="-38" width="77" height="77" class="key"/>
<text x="0" y="0" class="key tap">PP</text>
</g>
<g transform="translate(1120, 130)" class="key keypos-21">
<rect rx="4" ry="4" x="-38" y="-38" width="77" height="77" class="key"/>
<text x="0" y="0" class="key tap">NEXT</text>
</g>
<g transform="translate(1200, 150)" class="key trans keypos-22">
<rect rx="4" ry="4" x="-38" y="-38" width="77" height="77" class="key trans"/>
<text x="0" y="0" class="key trans tap">▽</text>
</g>
<g transform="translate(1280, 160)" class="key trans keypos-23">
<rect rx="4" ry="4" x="-38" y="-38" width="77" height="77" class="key trans"/>
<text x="0" y="0" class="key trans tap">▽</text>
</g>
<g transform="translate(40, 240)" class="key trans keypos-24">
<rect rx="4" ry="4" x="-38" y="-38" width="77" height="77" class="key trans"/>
<text x="0" y="0" class="key trans tap">▽</text>
</g>
<g transform="translate(120, 230)" class="key trans keypos-25">
<rect rx="4" ry="4" x="-38" y="-38" width="77" height="77" class="key trans"/>
<text x="0" y="0" class="key trans tap">▽</text>
</g>
<g transform="translate(200, 210)" class="key trans keypos-26">
<rect rx="4" ry="4" x="-38" y="-38" width="77" height="77" class="key trans"/>
<text x="0" y="0" class="key trans tap">▽</text>
</g>
<g transform="translate(280, 200)" class="key trans keypos-27">
<rect rx="4" ry="4" x="-38" y="-38" width="77" height="77" class="key trans"/>
<text x="0" y="0" class="key trans tap">▽</text>
</g>
<g transform="translate(360, 210)" class="key trans keypos-28">
<rect rx="4" ry="4" x="-38" y="-38" width="77" height="77" class="key trans"/>
<text x="0" y="0" class="key trans tap">▽</text>
</g>
<g transform="translate(440, 220)" class="key trans keypos-29">
<rect rx="4" ry="4" x="-38" y="-38" width="77" height="77" class="key trans"/>
<text x="0" y="0" class="key trans tap">▽</text>
</g>
<g transform="translate(880, 220)" class="key keypos-30">
<rect rx="4" ry="4" x="-38" y="-38" width="77" height="77" class="key"/>
<text x="0" y="0" class="key tap">LEFT</text>
</g>
<g transform="translate(960, 210)" class="key keypos-31">
<rect rx="4" ry="4" x="-38" y="-38" width="77" height="77" class="key"/>
<text x="0" y="0" class="key tap">DOWN</text>
</g>
<g transform="translate(1040, 200)" class="key keypos-32">
<rect rx="4" ry="4" x="-38" y="-38" width="77" height="77" class="key"/>
<text x="0" y="0" class="key tap">UP</text>
</g>
<g transform="translate(1120, 210)" class="key keypos-33">
<rect rx="4" ry="4" x="-38" y="-38" width="77" height="77" class="key"/>
<text x="0" y="0" class="key tap">RIGHT</text>
</g>
<g transform="translate(1200, 230)" class="key trans keypos-34">
<rect rx="4" ry="4" x="-38" y="-38" width="77" height="77" class="key trans"/>
<text x="0" y="0" class="key trans tap">▽</text>
</g>
<g transform="translate(1280, 240)" class="key trans keypos-35">
<rect rx="4" ry="4" x="-38" y="-38" width="77" height="77" class="key trans"/>
<text x="0" y="0" class="key trans tap">▽</text>
</g>
<g transform="translate(40, 320)" class="key trans keypos-36">
<rect rx="4" ry="4" x="-38" y="-38" width="77" height="77" class="key trans"/>
<text x="0" y="0" class="key trans tap">▽</text>
</g>
<g transform="translate(120, 310)" class="key trans keypos-37">
<rect rx="4" ry="4" x="-38" y="-38" width="77" height="77" class="key trans"/>
<text x="0" y="0" class="key trans tap">▽</text>
</g>
<g transform="translate(200, 290)" class="key trans keypos-38">
<rect rx="4" ry="4" x="-38" y="-38" width="77" height="77" class="key trans"/>
<text x="0" y="0" class="key trans tap">▽</text>
</g>
<g transform="translate(280, 280)" class="key trans keypos-39">
<rect rx="4" ry="4" x="-38" y="-38" width="77" height="77" class="key trans"/>
<text x="0" y="0" class="key trans tap">▽</text>
</g>
<g transform="translate(360, 290)" class="key trans keypos-40">
<rect rx="4" ry="4" x="-38" y="-38" width="77" height="77" class="key trans"/>
<text x="0" y="0" class="key trans tap">▽</text>
</g>
<g transform="translate(440, 300)" class="key trans keypos-41">
<rect rx="4" ry="4" x="-38" y="-38" width="77" height="77" class="key trans"/>
<text x="0" y="0" class="key trans tap">▽</text>
</g>
<g transform="translate(520, 260)" class="key trans keypos-42">
<rect rx="4" ry="4" x="-38" y="-38" width="77" height="77" class="key trans"/>
<text x="0" y="0" class="key trans tap">▽</text>
</g>
<g transform="translate(800, 260)" class="key trans keypos-43">
<rect rx="4" ry="4" x="-38" y="-38" width="77" height="77" class="key trans"/>
<text x="0" y="0" class="key trans tap">▽</text>
</g>
<g transform="translate(880, 300)" class="key keypos-44">
<rect rx="4" ry="4" x="-38" y="-38" width="77" height="77" class="key"/>
<text x="0" y="0" class="key tap">+</text>
</g>
<g transform="translate(960, 290)" class="key keypos-45">
<rect rx="4" ry="4" x="-38" y="-38" width="77" height="77" class="key"/>
<text x="0" y="0" class="key tap">-</text>
</g>
<g transform="translate(1040, 280)" class="key keypos-46">
<rect rx="4" ry="4" x="-38" y="-38" width="77" height="77" class="key"/>
<text x="0" y="0" class="key tap">=</text>
</g>
<g transform="translate(1120, 290)" class="key keypos-47">
<rect rx="4" ry="4" x="-38" y="-38" width="77" height="77" class="key"/>
<text x="0" y="0" class="key tap">[</text>
</g>
<g transform="translate(1200, 310)" class="key keypos-48">
<rect rx="4" ry="4" x="-38" y="-38" width="77" height="77" class="key"/>
<text x="0" y="0" class="key tap">]</text>
</g>
<g transform="translate(1280, 320)" class="key keypos-49">
<rect rx="4" ry="4" x="-38" y="-38" width="77" height="77" class="key"/>
<text x="0" y="0" class="key tap">\</text>
</g>
<g transform="translate(240, 370)" class="key trans keypos-50">
<rect rx="4" ry="4" x="-38" y="-38" width="77" height="77" class="key trans"/>
<text x="0" y="0" class="key trans tap">▽</text>
</g>
<g transform="translate(320, 372)" class="key trans keypos-51">
<rect rx="4" ry="4" x="-38" y="-38" width="77" height="77" class="key trans"/>
<text x="0" y="0" class="key trans tap">▽</text>
</g>
<g transform="translate(400, 380)" class="key trans keypos-52">
<rect rx="4" ry="4" x="-38" y="-38" width="77" height="77" class="key trans"/>
<text x="0" y="0" class="key trans tap">▽</text>
</g>
<g transform="translate(500, 380) rotate(30.0)" class="key trans keypos-53">
<rect rx="4" ry="4" x="-38" y="-58" width="77" height="117" class="key trans"/>
<text x="0" y="0" class="key trans tap">▽</text>
</g>
<g transform="translate(820, 380) rotate(-30.0)" class="key held keypos-54">
<rect rx="4" ry="4" x="-38" y="-58" width="77" height="117" class="key held"/>
</g>
<g transform="translate(920, 380)" class="key trans keypos-55">
<rect rx="4" ry="4" x="-38" y="-38" width="77" height="77" class="key trans"/>
<text x="0" y="0" class="key trans tap">▽</text>
</g>
<g transform="translate(1000, 372)" class="key trans keypos-56">
<rect rx="4" ry="4" x="-38" y="-38" width="77" height="77" class="key trans"/>
<text x="0" y="0" class="key trans tap">▽</text>
</g>
<g transform="translate(1080, 372)" class="key trans keypos-57">
<rect rx="4" ry="4" x="-38" y="-38" width="77" height="77" class="key trans"/>
<text x="0" y="0" class="key trans tap">▽</text>
</g>
</g>
</g>
</svg>
